<?xml version="1.0" encoding="utf-8" ?>
<svg xmlns="http://www.w3.org/2000/svg" xmlns:xlink="http://www.w3.org/1999/xlink" width="13.75" height="19.9996" viewBox="0 0 13.75 19.9996">
    <path d="M6.875 3.125C4.80703 3.125 3.125 4.80703 3.125 6.875C3.125 7.22031 3.40469 7.5 3.75 7.5C4.09531 7.5 4.375 7.22031 4.375 6.875C4.375 5.49609 5.49687 4.375 6.875 4.375C7.22031 4.375 7.5 4.09531 7.5 3.75C7.5 3.40469 7.22031 3.125 6.875 3.125ZM3.75234 17.9363C3.75234 18.0594 3.78867 18.1793 3.85703 18.2816L4.81445 19.7207C4.93047 19.8949 5.12578 19.9996 5.33477 19.9996L8.41484 19.9996C8.62422 19.9996 8.81953 19.8949 8.93516 19.7207L9.89258 18.2816C9.96055 18.1793 9.99688 18.059 9.99727 17.9363L9.99922 16.2496L3.75078 16.2496L3.75234 17.9363ZM6.875 0C2.87969 0 0 3.24102 0 6.875C0 8.6082 0.642578 10.1895 1.70156 11.3977C2.35156 12.1395 3.37109 13.6945 3.74922 14.9977L3.74922 15L5.62422 15L5.62422 14.9953C5.62383 14.809 5.59609 14.6238 5.54023 14.4457C5.32188 13.75 4.64883 11.9156 3.11172 10.1617C2.30938 9.24648 1.88047 8.08555 1.87695 6.875C1.86914 3.99844 4.20781 1.875 6.875 1.875C9.63203 1.875 11.875 4.11797 11.875 6.875C11.875 8.08477 11.4359 9.25195 10.6387 10.1617C9.11094 11.9043 8.43477 13.7348 8.21289 14.4375C8.18426 14.5278 8.16267 14.6198 8.14814 14.7135C8.1336 14.8071 8.12628 14.9013 8.12617 14.9961L8.12617 15L10.0012 15L10.0012 14.998C10.3793 13.6945 11.3988 12.1395 12.0488 11.398C13.1074 10.1895 13.75 8.6082 13.75 6.875C13.75 3.07812 10.6719 0 6.875 0Z" fill-rule="nonzero" transform="matrix(1 0 0 1 0 0)" fill="rgb(25, 118, 210)"/>
</svg>